<svg width="399" height="89" viewBox="0 0 399 89" fill="none" xmlns="http://www.w3.org/2000/svg">
<path fill-rule="evenodd" clip-rule="evenodd" d="M33.6968 23.5789H22.2875L27.0832 0H38.0928L33.6968 23.5789ZM16.8563 52.0135L19.7249 38.0799H31.1466L29.4846 46.1522C28.7789 49.5803 31.3972 52.7926 34.8972 52.7926H41.8639H55.2785H70.3134V63.3897H52.6821H39.2676H27.1512H26.343L26.1924 64.1839L21.583 88.4879H10.1552L14.6956 64.5476L14.9152 63.3897H13.7367H0V52.7926H15.9004H16.6959L16.8563 52.0135ZM54.4829 50.8407H43.0613L44.7233 42.7684C45.429 39.3403 42.8107 36.128 39.3107 36.128H32.344H18.9294H4.32726V25.5309H21.0931H34.5076H47.0567H47.8541L48.013 24.7494L53.0468 0H64.0564L59.5117 24.376L59.2964 25.5309H60.4712H74.6406V36.128H58.3075H57.512L57.3516 36.9071L54.4829 50.8407ZM35.6861 88.4879L40.0758 65.3417H51.5036L47.1138 88.4879H35.6861Z" fill="black"/>
<path d="M104.137 68.2439V20.1439H114.147V68.2439H104.137ZM122.989 68.2439V20.1439H132.154L152.889 50.8239V20.1439H162.834V68.2439H153.539L132.934 38.4089V68.2439H122.989ZM193.711 68.8939C189.724 68.8939 186.236 68.2006 183.246 66.8139C180.299 65.3839 177.829 63.4989 175.836 61.1589C173.843 58.7756 172.348 56.1106 171.351 53.1639C170.354 50.2172 169.856 47.2056 169.856 44.1289C169.856 41.0956 170.354 38.1056 171.351 35.1589C172.348 32.2122 173.843 29.5689 175.836 27.2289C177.829 24.8456 180.299 22.9606 183.246 21.5739C186.236 20.1872 189.724 19.4939 193.711 19.4939C197.048 19.4939 199.886 19.9272 202.226 20.7939C204.609 21.6172 206.581 22.7006 208.141 24.0439C209.744 25.3439 211.023 26.7522 211.976 28.2689C212.973 29.7422 213.709 31.1506 214.186 32.4939C214.663 33.7939 214.966 34.8772 215.096 35.7439C215.269 36.5672 215.356 36.9789 215.356 36.9789H205.411C205.411 36.9789 205.324 36.6972 205.151 36.1339C205.021 35.5272 204.739 34.8122 204.306 33.9889C203.873 33.1222 203.223 32.2772 202.356 31.4539C201.533 30.6306 200.406 29.9372 198.976 29.3739C197.589 28.7672 195.856 28.4639 193.776 28.4639C190.786 28.4639 188.273 29.2439 186.236 30.8039C184.243 32.3206 182.726 34.2706 181.686 36.6539C180.689 39.0372 180.191 41.5289 180.191 44.1289C180.191 46.7289 180.689 49.2422 181.686 51.6689C182.726 54.0522 184.243 56.0239 186.236 57.5839C188.273 59.1006 190.786 59.8589 193.776 59.8589C195.856 59.8589 197.589 59.5772 198.976 59.0139C200.406 58.4506 201.533 57.7572 202.356 56.9339C203.223 56.0672 203.873 55.2222 204.306 54.3989C204.739 53.5322 205.021 52.8172 205.151 52.2539C205.324 51.6906 205.411 51.4089 205.411 51.4089H215.356C215.356 51.4089 215.269 51.8422 215.096 52.7089C214.966 53.5322 214.663 54.6156 214.186 55.9589C213.709 57.2589 212.973 58.6672 211.976 60.1839C211.023 61.6572 209.744 63.0656 208.141 64.4089C206.581 65.7089 204.609 66.7922 202.226 67.6589C199.886 68.4822 197.048 68.8939 193.711 68.8939ZM222.394 68.2439V20.1439H232.404V59.5339H255.934V68.2439H222.394ZM283.726 68.8939C280.216 68.8939 276.966 68.2222 273.976 66.8789C271.03 65.5356 268.646 63.4556 266.826 60.6389C265.05 57.8222 264.161 54.1606 264.161 49.6539V20.1439H274.171V49.6539C274.171 52.4272 274.951 54.7672 276.511 56.6739C278.071 58.5372 280.476 59.4689 283.726 59.4689C286.976 59.4689 289.36 58.5372 290.876 56.6739C292.436 54.7672 293.216 52.4272 293.216 49.6539V20.1439H303.291V49.6539C303.291 54.1606 302.381 57.8222 300.561 60.6389C298.785 63.4556 296.401 65.5356 293.411 66.8789C290.421 68.2222 287.193 68.8939 283.726 68.8939ZM312.467 68.2439V20.1439H330.667C334.567 20.1439 337.99 20.8372 340.937 22.2239C343.927 23.5672 346.397 25.3872 348.347 27.6839C350.297 29.9806 351.77 32.5589 352.767 35.4189C353.764 38.2789 354.262 41.2039 354.262 44.1939C354.262 47.1839 353.764 50.1089 352.767 52.9689C351.77 55.8289 350.297 58.4072 348.347 60.7039C346.397 63.0006 343.927 64.8422 340.937 66.2289C337.99 67.5722 334.567 68.2439 330.667 68.2439H312.467ZM330.212 28.9189H322.477V59.3389H330.212C333.375 59.3389 335.975 58.6022 338.012 57.1289C340.092 55.6556 341.63 53.7489 342.627 51.4089C343.667 49.0689 344.187 46.6422 344.187 44.1289C344.187 41.6156 343.667 39.2106 342.627 36.9139C341.63 34.5739 340.092 32.6672 338.012 31.1939C335.975 29.6772 333.375 28.9189 330.212 28.9189ZM361.28 68.2439V20.1439H394.43V28.8539H371.29V39.6439H391.44V48.0289H371.29V59.5339H394.755V68.2439H361.28Z" fill="black"/>
</svg>
